# xmcd CD database file
#
# Track frame offsets:
#	150
#	9785
#	22167
#	36116
#	48900
#	67054
#	77403
#	92003
#	105490
#	115202
#	134342
#	146284
#	160290
#	168539
#	179876
#	196203
#	214465
#	229414
#	237619
#	255483
#	268550
#	276205
#	288244
#	302031
#	316496
#
# Disc length: 4356 seconds
#
# Revision: 0
# Processed by: cddbd v1.5.1PL2 Copyright (c) Steve Scherf et al.
# Submitted via: CDex 1.51
#
DISCID=6c110219
DTITLE=Alien Rebels - Strange Feelings
DYEAR=1996
DGENRE=Country
TTITLE0=Feelings
TTITLE1=Drivin' Wheel
TTITLE2=Houndstooth Jacket
TTITLE3=I Trusted You
TTITLE4=Dance Of The Strange
TTITLE5=Surfin' The Net
TTITLE6=I Lobster And Never Flounder
TTITLE7=Laundromat Love
TTITLE8=Teenage Boogie
TTITLE9=Don Armanno's Campground
TTITLE10=Slow Down
TTITLE11=Hey Big Daddy
TTITLE12=Lonesome Train
TTITLE13=Bop
TTITLE14=Aliens
TTITLE15=Ride Into The Night
TTITLE16=Lonely Side Of Lonesome
TTITLE17=Just Tell Me Why
TTITLE18=You Won't Let Me In
TTITLE19=For The Dreamers
TTITLE20=I Wanna Rob Trains
TTITLE21=Like A Caddilac
TTITLE22=That's Allright By Me
TTITLE23=Men In Black
TTITLE24=Cadillac Girl
EXTD=YEAR: 1996
EXTT0=
EXTT1=
EXTT2=
EXTT3=
EXTT4=
EXTT5=
EXTT6=
EXTT7=
EXTT8=
EXTT9=
EXTT10=
EXTT11=
EXTT12=
EXTT13=
EXTT14=
EXTT15=
EXTT16=
EXTT17=
EXTT18=
EXTT19=
EXTT20=
EXTT21=
EXTT22=
EXTT23=
EXTT24=
PLAYORDER=
